custom-analysis
version=1
nRows=6
nColumns=98
inDegrees=no

This file contains tibia displacement and acting force.

Units are S.I. units (seconds, meters, Newtons, ...)
Angles are in degrees.

endheader
time	APT	SIT	knee_angle	aACL_R_force	pACL_R_force	aPCL_R_force	pPCL_R_force	aMCL_R_force	mMCL_R_force	pMCL_R_force	aLCL_R_force	mLCL_R_force	pLCL_R_force	aPCL_L_force	pPCL_L_force	aMCL_L_force	aLCL_L_force	aACL_R_length	pACL_R_length	aPCL_R_length	pPCL_R_length	aMCL_R_length	mMCL_R_length	pMCL_R_length	aLCL_R_length	mLCL_R_length	pLCL_R_length	aPCL_L_length	pPCL_L_length	aMCL_L_length	aLCL_L_length	aACL_R_strain	pACL_R_strain	aPCL_R_strain	pPCL_R_strain	aMCL_R_strain	mMCL_R_strain	pMCL_R_strain	aLCL_R_strain	mLCL_R_strain	pLCL_R_strain	aPCL_L_strain	pPCL_L_strain	aMCL_L_strain	aLCL_L_strain	femur_lat_meniscii_r.femur_lat_r.force.X	femur_lat_meniscii_r.femur_lat_r.force.Y	femur_lat_meniscii_r.femur_lat_r.force.Z	femur_lat_meniscii_r.femur_lat_r.torque.X	femur_lat_meniscii_r.femur_lat_r.torque.Y	femur_lat_meniscii_r.femur_lat_r.torque.Z	femur_lat_meniscii_r.meniscus_lat_r.force.X	femur_lat_meniscii_r.meniscus_lat_r.force.Y	femur_lat_meniscii_r.meniscus_lat_r.force.Z	femur_lat_meniscii_r.meniscus_lat_r.torque.X	femur_lat_meniscii_r.meniscus_lat_r.torque.Y	femur_lat_meniscii_r.meniscus_lat_r.torque.Z	femur_med_meniscii_r.femur_med_r.force.X	femur_med_meniscii_r.femur_med_r.force.Y	femur_med_meniscii_r.femur_med_r.force.Z	femur_med_meniscii_r.femur_med_r.torque.X	femur_med_meniscii_r.femur_med_r.torque.Y	femur_med_meniscii_r.femur_med_r.torque.Z	femur_med_meniscii_r.meniscus_med_r.force.X	femur_med_meniscii_r.meniscus_med_r.force.Y	femur_med_meniscii_r.meniscus_med_r.force.Z	femur_med_meniscii_r.meniscus_med_r.torque.X	femur_med_meniscii_r.meniscus_med_r.torque.Y	femur_med_meniscii_r.meniscus_med_r.torque.Z	femur_med_tibia_r.tibia_upper_r.force.X	femur_med_tibia_r.tibia_upper_r.force.Y	femur_med_tibia_r.tibia_upper_r.force.Z	femur_med_tibia_r.tibia_upper_r.torque.X	femur_med_tibia_r.tibia_upper_r.torque.Y	femur_med_tibia_r.tibia_upper_r.torque.Z	femur_med_tibia_r.femur_med_r.force.X	femur_med_tibia_r.femur_med_r.force.Y	femur_med_tibia_r.femur_med_r.force.Z	femur_med_tibia_r.femur_med_r.torque.X	femur_med_tibia_r.femur_med_r.torque.Y	femur_med_tibia_r.femur_med_r.torque.Z	femur_lat_tibia_r.tibia_upper_r.force.X	femur_lat_tibia_r.tibia_upper_r.force.Y	femur_lat_tibia_r.tibia_upper_r.force.Z	femur_lat_tibia_r.tibia_upper_r.torque.X	femur_lat_tibia_r.tibia_upper_r.torque.Y	femur_lat_tibia_r.tibia_upper_r.torque.Z	femur_lat_tibia_r.femur_lat_r.force.X	femur_lat_tibia_r.femur_lat_r.force.Y	femur_lat_tibia_r.femur_lat_r.force.Z	femur_lat_tibia_r.femur_lat_r.torque.X	femur_lat_tibia_r.femur_lat_r.torque.Y	femur_lat_tibia_r.femur_lat_r.torque.Z	femur_lat_meniscii_force_r	femur_med_meniscii_force_r	femur_lat_tibia_force_r	femur_med_tibia_force_r
      0.10546230	      0.00793934	      0.00712674	     26.89194847	      6.91508362	    -11.42778360	      0.00000000	     54.25103746	      0.00000000	      0.00000000	    -39.46094066	      0.00000000	      0.00000000	      0.00000000	      0.00000000	      0.00000000	      0.00000001	      0.00000000	      0.03231984	      0.02533667	      0.03094925	      0.03008998	      0.05713286	      0.05949374	      0.05892673	      0.05366994	      0.05064844	      0.04716728	      0.01525851	      0.01651186	      0.06550154	      0.04489616	      0.04239062	      0.01109280	     -0.00469699	      0.00676465	     -0.04821395	     -0.00501332	      0.00338391	     -0.04121794	     -0.10068001	     -0.09887559	      0.00000079	     -0.32847694	      0.00000060	     -0.00000086	     79.50219312	    323.05094481	     45.75283256	    -26.62299981	      2.08800299	     31.55694107	    -79.50219312	   -323.05094481	    -45.75283256	      9.88686378	     -2.70230089	      1.86195241	    -39.29478297	     79.28032139	      8.44347157	     -1.54835575	      0.95393642	    -16.07121708	     39.29478297	    -79.28032139	     -8.44347157	     -1.49448004	     -0.94176415	      1.79597589	    -86.40632215	   -475.19853263	    100.71919717	    -11.04181509	      2.09014434	      0.42076064	     86.40632215	    475.19853263	   -100.71919717	     50.64407067	     -1.34596542	     37.06482391	    -29.04932719	   -105.51779943	    -26.02505004	      3.60655512	     -0.99989471	      0.02816758	     29.04932719	    105.51779943	     26.02505004	    -13.30837849	      0.68809271	     12.06526170	    335.82113296	     88.88611556	    112.49521161	    493.38023329
      0.10626194	      0.00799717	      0.00723189	     27.24864954	      6.33805039	    -11.86544725	      0.00000000	     56.14575478	      0.00000000	      0.00000000	    -39.38329444	      0.00000000	      0.00000000	      0.00000000	      0.00000000	      0.00000000	      0.00000001	      0.00000000	      0.03230611	      0.02531193	      0.03100885	      0.03013136	      0.05716019	      0.05948715	      0.05888329	      0.05366313	      0.05061985	      0.04711680	      0.01525851	      0.01651186	      0.06550154	      0.04489616	      0.04194769	      0.01010562	     -0.00278012	      0.00814903	     -0.04775860	     -0.00512347	      0.00264420	     -0.04133960	     -0.10118775	     -0.09984006	      0.00000079	     -0.32847694	      0.00000060	     -0.00000086	     78.23697898	    322.22477168	     45.25025958	    -26.37928016	      2.05915552	     30.99741190	    -78.23697898	   -322.22477168	    -45.25025958	      9.82190736	     -2.66836407	      1.96816506	    -38.62407042	     79.45729380	      9.72157080	     -2.07731694	      0.93402763	    -15.80267100	     38.62407042	    -79.45729380	     -9.72157080	     -1.45643709	     -0.93793728	      1.79492297	    -90.10877885	   -478.81023660	    102.07720428	    -11.16176959	      2.17559978	      0.38826994	     90.10877885	    478.81023660	   -102.07720428	     51.27425054	     -1.41199104	     38.60290723	    -26.42664281	    -96.05844227	    -23.62885932	      3.27391159	     -0.91301374	      0.05014971	     26.42664281	     96.05844227	     23.62885932	    -12.08525278	      0.62794304	     10.96339986	    334.66014754	     88.88075885	    102.39098972	    497.79372268
      0.10706157	      0.00805612	      0.00733831	     27.60731048	      5.61183465	    -12.40294614	      0.00000000	     58.23760627	      0.00000000	      0.00000000	    -39.50707446	      0.00000000	      0.00000000	      0.00000000	      0.00000000	      0.00000000	      0.00000001	      0.00000000	      0.03229154	      0.02528643	      0.03106854	      0.03017241	      0.05718787	      0.05948058	      0.05883986	      0.05365648	      0.05059119	      0.04706618	      0.01525851	      0.01651186	      0.06550154	      0.04489616	      0.04147767	      0.00908775	     -0.00086071	      0.00952251	     -0.04729753	     -0.00523341	      0.00190471	     -0.04145826	     -0.10169660	     -0.10080718	      0.00000079	     -0.32847694	      0.00000060	     -0.00000086	     75.19510232	    323.34772759	     45.92128688	    -26.68886683	      1.97755394	     29.68568366	    -75.19510232	   -323.34772759	    -45.92128688	      9.86609073	     -2.58901913	      2.16678280	    -37.90648823	     80.82455075	     10.80568924	     -2.49187268	      0.91227436	    -15.50431006	     37.90648823	    -80.82455075	    -10.80568924	     -1.45599309	     -0.93078125	      1.79357734	    -94.78055075	   -482.05399036	    101.92026858	    -11.21086881	      2.26578811	      0.31815850	     94.78055075	    482.05399036	   -101.92026858	     51.25356021	     -1.49872637	     40.54744729	    -24.56670522	    -89.23522572	    -21.86796662	      3.03130972	     -0.85142587	      0.06865622	     24.56670522	     89.23522572	     21.86796662	    -11.18840314	      0.58559206	     10.17988007	    335.13701815	     89.92370530	     95.10339888	    501.74410168
      0.10776414	      0.00810892	      0.00743283	     27.92403039	      5.26141914	    -12.57555771	     26.78914460	     59.51542928	      0.00000000	      0.00000000	    -39.90682349	      0.00000000	      0.00000000	      0.00000000	      0.00000000	      0.00000000	      0.00000001	      0.00000000	      0.03227828	      0.02526365	      0.03112091	      0.03020807	      0.05721244	      0.05947478	      0.05880168	      0.05365070	      0.05056588	      0.04702150	      0.01525851	      0.01651186	      0.06550154	      0.04489616	      0.04105012	      0.00817895	      0.00082356	      0.01071577	     -0.04688824	     -0.00533033	      0.00125461	     -0.04156154	     -0.10214608	     -0.10166078	      0.00000079	     -0.32847694	      0.00000060	     -0.00000086	     74.33821690	    323.84624535	     45.53221465	    -26.53481888	      1.94158102	     29.29030012	    -74.33821690	   -323.84624535	    -45.53221465	      9.85188062	     -2.54997311	      2.27428312	    -38.16297141	     81.86481565	     11.87444473	     -2.91040996	      0.91348683	    -15.62104265	     38.16297141	    -81.86481565	    -11.87444473	     -1.44613404	     -0.94415115	      1.83106438	    -98.84957651	   -483.45194421	    102.52240182	    -11.26539303	      2.34867782	      0.24936944	     98.84957651	    483.45194421	   -102.52240182	     51.52654902	     -1.57093730	     42.23693902	    -23.91675603	    -84.46652347	    -20.83692277	      2.87195074	     -0.82702462	      0.05663465	     23.91675603	     84.46652347	     20.83692277	    -10.64832659	      0.57107582	      9.90667862	    335.37403550	     91.10029015	     90.22628307	    503.99192852
      0.10880260	      0.00819227	      0.00757574	     28.39546785	      5.47575800	    -12.15266220	     25.96395250	     59.37997541	      0.00000000	      0.00000000	    -41.07162931	      0.00000000	      0.00000000	      0.00000000	      0.00000000	      0.00000000	      0.00000001	      0.00000000	      0.03225946	      0.02523075	      0.03119492	      0.03025686	      0.05724757	      0.05946448	      0.05874354	      0.05364029	      0.05052635	      0.04695316	      0.01525851	      0.01651186	      0.06550154	      0.04489616	      0.04044301	      0.00686572	      0.00320374	      0.01234832	     -0.04630305	     -0.00550258	      0.00026459	     -0.04174762	     -0.10284795	     -0.10296636	      0.00000079	     -0.32847694	      0.00000060	     -0.00000086	     76.85342965	    328.27073825	     44.16286213	    -26.06726973	      1.97673639	     30.27496447	    -76.85342965	   -328.27073825	    -44.16286213	      9.90325437	     -2.58140078	      2.34868292	    -36.09059919	     81.73974574	     12.72768623	     -3.26477416	      0.86335292	    -14.76402151	     36.09059919	    -81.73974574	    -12.72768623	     -1.42174042	     -0.91059641	      1.77835820	   -107.01762511	   -493.91704641	    105.06391290	    -11.53257254	      2.52179252	      0.14385624	    107.01762511	    493.91704641	   -105.06391290	     52.76742689	     -1.71545528	     45.64845968	    -23.13084955	    -78.82298643	    -19.35390816	      2.67033853	     -0.79496360	      0.04534945	     23.13084955	     78.82298643	     19.35390816	     -9.89589524	      0.55298385	      9.57579946	    340.02718367	     90.25470282	     84.39593089	    516.18334592
      0.10984107	      0.00828191	      0.00772218	     28.87075491	      5.04663112	    -12.31963033	     25.48699128	     58.65292831	      0.00000000	      0.00000000	      0.00000000	      0.00000000	      0.00000000	      0.00000000	      0.00000000	      0.00000000	      0.00000001	      0.00000000	      0.03224166	      0.02519882	      0.03126517	      0.03030126	      0.05728153	      0.05945237	      0.05868362	      0.05362798	      0.05048465	      0.04688245	      0.01525851	      0.01651186	      0.06550154	      0.04489616	      0.03986896	      0.00559176	      0.00546292	      0.01383359	     -0.04573721	     -0.00570516	     -0.00075569	     -0.04196738	     -0.10358830	     -0.10431735	      0.00000079	     -0.32847694	      0.00000060	     -0.00000086	     80.52552229	    337.66194947	     41.87815745	    -25.33419216	      2.03657819	     31.71569844	    -80.52552229	   -337.66194947	    -41.87815745	     10.04997027	     -2.63065397	      2.46361659	    -33.90896188	     83.48540183	     13.94869383	     -3.71817707	      0.81303268	    -13.85543074	     33.90896188	    -83.48540183	    -13.94869383	     -1.43469705	     -0.88091536	      1.73519916	   -118.67846172	   -511.84988223	    108.76672695	    -11.95623016	      2.76036524	     -0.02120827	    118.67846172	    511.84988223	   -108.76672695	     54.62543921	     -1.91910936	     50.53769402	    -22.10058832	    -73.95581468	    -18.07682724	      2.49602541	     -0.75851263	      0.05112968	     22.10058832	     73.95581468	     18.07682724	     -9.24718257	      0.52917314	      9.14105495	    349.64801148	     91.18221358	     79.27591193	    536.56787092
